<svg viewBox="0 0 182 20" xmlns="http://www.w3.org/2000/svg">
    <circle cx="2.85714" cy="2.85714" r="2.85714" fill="#fff" />
    <circle cx="14.571" cy="2.85714" r="2.85714" fill="#fff" />
    <circle cx="26.2859" cy="2.85714" r="2.85714" fill="#fff" />
    <circle cx="37.9997" cy="2.85714" r="2.85714" fill="#fff" />
    <circle cx="49.7146" cy="2.85714" r="2.85714" fill="#fff" />
    <circle cx="61.4284" cy="2.85714" r="2.85714" fill="#fff" />
    <circle cx="73.1433" cy="2.85714" r="2.85714" fill="#fff" />
    <circle cx="84.8571" cy="2.85714" r="2.85714" fill="#fff" />
    <circle cx="96.571" cy="2.85714" r="2.85714" fill="#fff" />
    <circle cx="108.286" cy="2.85714" r="2.85714" fill="#fff" />
    <circle cx="120" cy="2.85714" r="2.85714" fill="#fff" />
    <circle cx="131.715" cy="2.85714" r="2.85714" fill="#fff" />
    <circle cx="143.428" cy="2.85714" r="2.85714" fill="#fff" />
    <circle cx="155.143" cy="2.85714" r="2.85714" fill="#fff" />
    <circle cx="166.857" cy="2.85714" r="2.85714" fill="#fff" />
    <circle cx="178.571" cy="2.85714" r="2.85714" fill="#fff" />
    <circle cx="2.85714" cy="16.5715" r="2.85714" fill="#fff" />
    <circle cx="14.571" cy="16.5715" r="2.85714" fill="#fff" />
    <circle cx="26.2859" cy="16.5715" r="2.85714" fill="#fff" />
    <circle cx="37.9997" cy="16.5715" r="2.85714" fill="#fff" />
    <circle cx="49.7146" cy="16.5715" r="2.85714" fill="#fff" />
    <circle cx="61.4284" cy="16.5715" r="2.85714" fill="#fff" />
    <circle cx="73.1433" cy="16.5715" r="2.85714" fill="#fff" />
    <circle cx="84.8571" cy="16.5715" r="2.85714" fill="#fff" />
    <circle cx="96.571" cy="16.5715" r="2.85714" fill="#fff" />
    <circle cx="108.286" cy="16.5715" r="2.85714" fill="#fff" />
    <circle cx="120" cy="16.5715" r="2.85714" fill="#fff" />
    <circle cx="131.715" cy="16.5715" r="2.85714" fill="#fff" />
    <circle cx="143.428" cy="16.5715" r="2.85714" fill="#fff" />
    <circle cx="155.143" cy="16.5715" r="2.85714" fill="#fff" />
    <circle cx="166.857" cy="16.5715" r="2.85714" fill="#fff" />
    <circle cx="178.571" cy="16.5715" r="2.85714" fill="#fff" />
</svg>